P3
16 24
255
241 241 241 250 250 250 243 243 243 249 249 249 244 244 244 248 248 248 245 245 245 247 247 247 247 247 247 244 244 244 248 248 248 245 245 245 250 250 250 243 243 243 250 250 250 241 241 241 
250 250 250 244 244 244 248 248 248 244 244 244 246 246 246 241 241 241 244 244 244 248 248 248 226 226 226 203 203 203 213 213 213 216 216 216 231 231 231 248 248 248 244 244 244 250 250 250 
243 243 243 248 248 248 244 244 244 248 248 248 240 240 240 199 199 199 203 203 203 222 222 222 222 222 222 219 219 219 218 218 218 212 212 212 198 198 198 213 213 213 250 250 250 243 243 243 
249 249 249 244 244 244 248 248 248 244 244 244 239 239 239 146 146 146 113 113 113 196 196 196 222 222 222 220 220 220 209 209 209 224 224 224 216 216 216 195 195 195 244 244 244 249 249 249 
244 244 244 248 248 248 245 245 245 247 247 247 225 225 225 137 137 137 25 25 25 134 134 134 225 225 225 193 193 193 156 156 156 217 217 217 184 184 184 143 143 143 210 210 210 243 243 243 
248 248 248 245 245 245 248 248 248 244 244 244 208 208 208 129 129 129 64 64 64 46 46 46 135 135 135 210 210 210 198 198 198 196 196 196 49 49 49 65 65 65 190 190 190 248 248 248 
245 245 245 248 248 248 234 234 234 213 213 213 193 193 193 188 188 188 201 201 201 167 167 167 58 58 58 86 86 86 178 178 178 152 152 152 90 90 90 122 122 122 217 217 217 245 245 245 
247 247 247 245 245 245 191 191 191 223 223 223 219 219 219 181 181 181 193 193 193 215 215 215 143 143 143 60 60 60 179 179 179 190 190 190 200 200 200 227 227 227 244 244 244 247 247 247 
247 247 247 243 243 243 184 184 184 229 229 229 212 212 212 137 137 137 162 162 162 210 210 210 148 148 148 169 169 169 213 213 213 219 219 219 215 215 215 206 206 206 237 237 237 247 247 247 
245 245 245 247 247 247 221 221 221 175 175 175 127 127 127 152 152 152 113 113 113 144 144 144 177 177 177 222 222 222 169 169 169 174 174 174 220 220 220 187 187 187 235 235 235 246 246 246 
248 248 248 246 246 246 223 223 223 89 89 89 51 51 51 92 92 92 43 43 43 67 67 67 178 178 178 216 216 216 144 144 144 165 165 165 149 149 149 184 184 184 227 227 227 248 248 248 
244 244 244 248 248 248 222 222 222 204 204 204 170 170 170 179 179 179 168 168 168 165 165 165 201 201 201 214 214 214 203 203 203 191 191 191 111 111 111 115 115 115 216 216 216 246 246 246 
251 251 251 206 206 206 176 176 176 206 206 206 202 202 202 202 202 202 188 188 188 156 156 156 167 167 167 190 190 190 147 147 147 142 142 142 109 109 109 100 100 100 235 235 235 250 250 250 
242 242 242 215 215 215 210 210 210 204 204 204 169 169 169 180 180 180 207 207 207 174 174 174 182 182 182 212 212 212 200 200 200 176 176 176 59 59 59 103 103 103 219 219 219 243 243 243 
231 231 231 192 192 192 200 200 200 184 184 184 123 123 123 156 156 156 198 198 198 184 184 184 229 229 229 218 218 218 213 213 213 213 213 213 99 99 99 116 116 116 222 222 222 251 251 251 
239 239 239 178 178 178 180 180 180 132 132 132 53 53 53 137 137 137 143 143 143 168 168 168 223 223 223 180 180 180 154 154 154 211 211 211 223 223 223 194 194 194 247 247 247 242 242 242 
251 251 251 229 229 229 180 180 180 98 98 98 19 19 19 67 67 67 161 161 161 178 178 178 221 221 221 182 182 182 161 161 161 207 207 207 206 206 206 208 208 208 245 245 245 250 250 250 
243 243 243 240 240 240 153 153 153 119 119 119 145 145 145 128 128 128 142 142 142 190 190 190 220 220 220 222 222 222 218 218 218 216 216 216 175 175 175 209 209 209 250 250 250 243 243 243 
250 250 250 242 242 242 226 226 226 237 237 237 223 223 223 142 142 142 197 197 197 165 165 165 188 188 188 215 215 215 225 225 225 194 194 194 142 142 142 166 166 166 246 246 246 250 250 250 
243 243 243 248 248 248 246 246 246 249 249 249 243 243 243 155 155 155 189 189 189 148 148 148 99 99 99 157 157 157 136 136 136 177 177 177 214 214 214 142 142 142 241 241 241 244 244 244 
249 249 249 244 244 244 248 248 248 245 245 245 247 247 247 207 207 207 108 108 108 126 126 126 218 218 218 235 235 235 152 152 152 215 215 215 229 229 229 153 153 153 226 226 226 250 250 250 
244 244 244 247 247 247 245 245 245 247 247 247 243 243 243 231 231 231 201 201 201 187 187 187 236 236 236 246 246 246 245 245 245 246 246 246 238 238 238 208 208 208 239 239 239 245 245 245 
247 247 247 245 245 245 247 247 247 246 246 246 247 247 247 247 247 247 248 248 248 230 230 230 239 239 239 247 247 247 246 246 246 247 247 247 245 245 245 243 243 243 245 245 245 247 247 247 
247 247 247 246 246 246 247 247 247 246 246 246 246 246 246 246 246 246 246 246 246 247 247 247 246 246 246 246 246 246 246 246 246 246 246 246 246 246 246 247 247 247 246 246 246 247 247 247 
